HIERARCHY
ROOT Hips
{
 OFFSET 0.000000 0.000000 0.000000
 CHANNELS 6 Xposition Yposition Zposition Yrotation Xrotation Zrotation
 JOINT Chest
 {
  OFFSET 0.000000 11.395451 -0.039534
  CHANNELS 3 Yrotation Xrotation Zrotation
  JOINT Chest2
  {
   OFFSET 0.000000 9.398669 0.071813
   CHANNELS 3 Yrotation Xrotation Zrotation
   JOINT Chest3
   {
    OFFSET 0.000000 8.489801 0.000000
    CHANNELS 3 Yrotation Xrotation Zrotation
    JOINT Chest4
    {
     OFFSET 0.000000 8.489801 0.000000
     CHANNELS 3 Yrotation Xrotation Zrotation
     JOINT Neck
     {
      OFFSET 0.000000 12.404889 0.000000
      CHANNELS 3 Yrotation Xrotation Zrotation
      JOINT Head
      {
       OFFSET 0.000000 8.903270 0.092239
       CHANNELS 3 Yrotation Xrotation Zrotation
       End Site
       {
        OFFSET 0.000000 17.592497 0.007158
       }
      }
     }
     JOINT RightCollar
     {
      OFFSET -3.196775 6.966722 0.000000
      CHANNELS 3 Yrotation Xrotation Zrotation
      JOINT RightShoulder
      {
       OFFSET -15.955896 0.000000 0.000000
       CHANNELS 3 Yrotation Xrotation Zrotation
       JOINT RightElbow
       {
        OFFSET -24.792472 0.000000 0.000000
        CHANNELS 3 Yrotation Xrotation Zrotation
        JOINT RightWrist
        {
         OFFSET -20.900115 0.000000 0.025002
         CHANNELS 3 Yrotation Xrotation Zrotation
         End Site
         {
          OFFSET -16.056692 0.000000 0.000000
         }
        }
       }
      }
     }
     JOINT LeftCollar
     {
      OFFSET 3.196775 6.966722 0.000000
      CHANNELS 3 Yrotation Xrotation Zrotation
      JOINT LeftShoulder
      {
       OFFSET 15.955896 0.000000 0.000000
       CHANNELS 3 Yrotation Xrotation Zrotation
       JOINT LeftElbow
       {
        OFFSET 24.792472 0.000000 0.000000
        CHANNELS 3 Yrotation Xrotation Zrotation
        JOINT LeftWrist
        {
         OFFSET 20.900115 0.000000 0.025002
         CHANNELS 3 Yrotation Xrotation Zrotation
         End Site
         {
          OFFSET 16.056692 0.000000 0.000000
         }
        }
       }
      }
     }
    }
   }
  }
 }
 JOINT RightHip
 {
  OFFSET -9.568995 0.193718 0.019767
  CHANNELS 3 Yrotation Xrotation Zrotation
  JOINT RightKnee
  {
   OFFSET 0.000000 -56.649296 0.015402
   CHANNELS 3 Yrotation Xrotation Zrotation
   JOINT RightAnkle
   {
    OFFSET 0.000000 -41.365147 0.021264
    CHANNELS 3 Yrotation Xrotation Zrotation
    JOINT RightToe
    {
     OFFSET 0.000000 -7.465940 17.672538
     CHANNELS 3 Yrotation Xrotation Zrotation
     End Site
     {
      OFFSET 0.000000 -1.736315 7.837145
     }
    }
   }
  }
 }
 JOINT LeftHip
 {
  OFFSET 9.568995 0.193718 0.019767
  CHANNELS 3 Yrotation Xrotation Zrotation
  JOINT LeftKnee
  {
   OFFSET 0.000000 -56.649296 0.015402
   CHANNELS 3 Yrotation Xrotation Zrotation
   JOINT LeftAnkle
   {
    OFFSET 0.000000 -41.365147 0.021264
    CHANNELS 3 Yrotation Xrotation Zrotation
    JOINT LeftToe
    {
     OFFSET 0.000000 -7.465940 17.672538
     CHANNELS 3 Yrotation Xrotation Zrotation
     End Site
     {
      OFFSET 0.000000 -1.736315 7.837145
     }
    }
   }
  }
 }
}
MOTION
Frames: 15
Frame Time: 0.016667
-19.698829 56.290413 -92.644606 177.582909 -9.506602 -0.611883 -1.934460 3.653625 -0.100378 -0.858519 1.624242 -0.029352 -0.858519 1.624242 -0.029352 -0.643768 1.218225 -0.019730 -5.416664 17.622210 -0.087296 -9.961230 -3.289613 1.670569 0.135421 2.689685 8.757043 5.089628 -5.671524 78.651689 -3.066477 6.907211 -1.954783 -4.433511 -0.079571 1.912285 -3.624119 4.953146 -8.468227 4.586654 -7.798880 -75.786553 -0.774279 11.462455 -0.738455 5.561338 -3.266469 -5.757595 6.247505 8.961140 1.655875 -3.909805 8.396523 -0.541781 0.253864 -7.366312 0.267837 -0.000950 -0.609692 0.178630 1.759698 9.251787 0.387130 -0.588294 5.968333 -0.091159 0.367566 -6.514838 -0.025004 0.000000 0.000000 0.000000
-19.686476 56.291615 -92.639523 177.601429 -9.521052 -0.604996 -1.929847 3.658804 -0.100439 -0.856468 1.626543 -0.029394 -0.856468 1.626543 -0.029394 -0.642229 1.219951 -0.019764 -5.426667 17.637237 -0.087737 -9.978742 -3.261165 1.671940 0.150100 2.714568 8.752074 5.097829 -5.692655 78.702013 -2.985454 6.943342 -1.907883 -4.447588 -0.080660 1.916559 -3.617361 4.976755 -8.491063 4.558230 -7.790823 -75.812610 -0.962494 11.487350 -0.826013 5.535715 -3.272266 -5.765998 6.241024 8.967607 1.655757 -3.917584 8.412941 -0.544089 0.249561 -7.369245 0.271743 -0.000916 -0.614763 0.170748 1.760605 9.258173 0.390167 -0.587873 5.974776 -0.095789 0.359597 -6.504490 -0.037358 0.000000 0.000000 0.000000
-19.674551 56.293001 -92.632916 177.622540 -9.532762 -0.599499 -1.924353 3.664367 -0.101815 -0.854014 1.629020 -0.030025 -0.854014 1.629020 -0.030025 -0.640387 1.221810 -0.020240 -5.439240 17.650719 -0.085594 -10.001940 -3.235197 1.679039 0.165767 2.745018 8.748575 5.120654 -5.731024 78.754348 -2.887960 6.978251 -1.856575 -4.461587 -0.082327 1.919155 -3.613919 5.003282 -8.510394 4.517890 -7.790030 -75.835098 -1.165477 11.512944 -0.919143 5.507905 -3.281053 -5.771720 6.235331 8.970980 1.657488 -3.927168 8.427998 -0.548420 0.243553 -7.369926 0.277452 -0.000881 -0.620568 0.162639 1.766927 9.259752 0.395434 -0.590948 5.983208 -0.100834 0.347607 -6.493799 -0.048957 0.000000 0.000000 0.000000
-19.663624 56.294344 -92.624464 177.648237 -9.543200 -0.595253 -1.920241 3.672154 -0.104241 -0.852164 1.632490 -0.031103 -0.852164 1.632490 -0.031103 -0.638997 1.224414 -0.021049 -5.451741 17.660043 -0.081598 -10.025844 -3.216784 1.689842 0.183654 2.776751 8.744662 5.152948 -5.779469 78.802814 -2.763110 7.013002 -1.794456 -4.476214 -0.084308 1.921358 -3.612629 5.030338 -8.525784 4.462579 -7.794029 -75.850606 -1.376772 11.546358 -1.012250 5.481314 -3.286893 -5.776633 6.229821 8.973489 1.660040 -3.941967 8.440072 -0.553496 0.238140 -7.367445 0.284178 -0.000845 -0.627087 0.154475 1.766983 9.257648 0.400434 -0.592970 5.994371 -0.105996 0.334462 -6.485745 -0.058003 0.000000 0.000000 0.000000
-19.653521 56.295558 -92.614120 177.679460 -9.553195 -0.592695 -1.917984 3.683132 -0.107083 -0.851134 1.637380 -0.032338 -0.851134 1.637380 -0.032338 -0.638220 1.228083 -0.021971 -5.463804 17.663117 -0.076132 -10.049760 -3.209854 1.703685 0.206513 2.807419 8.740837 5.190653 -5.836517 78.844982 -2.607738 7.046911 -1.719146 -4.491740 -0.086127 1.923895 -3.614063 5.057543 -8.537158 4.383688 -7.802081 -75.857989 -1.594335 11.591792 -1.102369 5.457227 -3.286297 -5.781594 6.227034 8.976397 1.664326 -3.967521 8.447938 -0.559376 0.235508 -7.361174 0.292036 -0.000808 -0.634302 0.145909 1.755144 9.252329 0.404888 -0.591463 6.009309 -0.111512 0.320910 -6.482650 -0.062905 0.000000 0.000000 0.000000
-19.644418 56.296730 -92.601930 177.715269 -9.561917 -0.591390 -1.917110 3.696336 -0.110971 -0.850708 1.643264 -0.034017 -0.850708 1.643264 -0.034017 -0.637896 1.232498 -0.023223 -5.475793 17.662032 -0.068813 -10.074383 -3.210477 1.721235 0.231594 2.839367 8.736599 5.237826 -5.903653 78.883172 -2.424906 7.080470 -1.633159 -4.507893 -0.088266 1.926046 -3.617642 5.085268 -8.544589 4.289823 -7.814917 -75.858325 -1.820316 11.644965 -1.192387 5.434374 -3.282771 -5.785763 6.224430 8.978438 1.669433 -3.998290 8.452818 -0.566005 0.233471 -7.351739 0.300912 -0.000769 -0.642229 0.137289 1.737040 9.243327 0.409069 -0.588904 6.026979 -0.117141 0.306206 -6.482195 -0.065257 0.000000 0.000000 0.000000
-19.637408 56.297886 -92.587729 177.754832 -9.568348 -0.589888 -1.918460 3.710713 -0.117534 -0.851249 1.649681 -0.036862 -0.851249 1.649681 -0.036862 -0.638293 1.237315 -0.025346 -5.486160 17.660445 -0.059222 -10.096811 -3.211938 1.742466 0.251876 2.875350 8.728544 5.301494 -5.978149 78.918639 -2.213050 7.116428 -1.537434 -4.524561 -0.091896 1.926931 -3.620470 5.112256 -8.547874 4.203759 -7.832275 -75.851570 -2.054553 11.700263 -1.285580 5.412340 -3.280891 -5.788494 6.213779 8.978046 1.671593 -4.021060 8.456763 -0.571936 0.227775 -7.340117 0.309672 -0.000737 -0.650899 0.129828 1.717870 9.230362 0.411303 -0.588177 6.044983 -0.121875 0.290969 -6.480401 -0.068044 0.000000 0.000000 0.000000
-19.633298 56.299113 -92.571820 177.797477 -9.573620 -0.587096 -1.921354 3.726374 -0.127023 -0.852450 1.656682 -0.040988 -0.852450 1.656682 -0.040988 -0.639182 1.242572 -0.028428 -5.493332 17.659328 -0.047848 -10.113924 -3.212580 1.765876 0.265950 2.917995 8.715386 5.388425 -6.058855 78.950615 -1.967592 7.153731 -1.430813 -4.543505 -0.097269 1.927181 -3.622251 5.135824 -8.546261 4.137812 -7.852705 -75.839096 -2.302460 11.759706 -1.384687 5.392372 -3.281140 -5.790383 6.190240 8.977730 1.668158 -4.027733 8.457831 -0.575343 0.216157 -7.326619 0.316637 -0.000718 -0.659088 0.124761 1.699484 9.214655 0.410042 -0.590195 6.063317 -0.125051 0.276022 -6.475753 -0.072409 0.000000 0.000000 0.000000
-19.631284 56.300324 -92.553900 177.843875 -9.576602 -0.584106 -1.926476 3.743214 -0.139184 -0.854618 1.664218 -0.046279 -0.854618 1.664218 -0.046279 -0.640792 1.248231 -0.032379 -5.498878 17.657708 -0.034200 -10.128834 -3.214063 1.792965 0.275218 2.964683 8.698415 5.491836 -6.146974 78.979668 -1.692968 7.193059 -1.314674 -4.562967 -0.104119 1.926159 -3.623264 5.158647 -8.540504 4.079674 -7.877658 -75.819555 -2.558658 11.821103 -1.487149 5.373226 -3.283027 -5.790827 6.158656 8.974980 1.661771 -4.026406 8.457967 -0.578048 0.200880 -7.310931 0.323485 -0.000705 -0.668019 0.120853 1.680038 9.194987 0.406832 -0.594043 6.081985 -0.127332 0.260544 -6.469765 -0.077210 0.000000 0.000000 0.000000
-19.630041 56.301295 -92.532888 177.895217 -9.572882 -0.582736 -1.936718 3.759855 -0.154890 -0.859031 1.671683 -0.053103 -0.859031 1.671683 -0.053103 -0.644082 1.253840 -0.037474 -5.505963 17.656327 -0.016386 -10.147975 -3.214641 1.828218 0.276868 3.010298 8.678082 5.598396 -6.243320 79.009128 -1.401163 7.239771 -1.193542 -4.577563 -0.112802 1.921030 -3.621472 5.187503 -8.532659 4.015179 -7.911215 -75.788809 -2.806716 11.872597 -1.588184 5.350754 -3.289642 -5.787335 6.125323 8.960712 1.656595 -4.028161 8.465061 -0.584070 0.184485 -7.293087 0.334132 -0.000687 -0.681398 0.115612 1.659197 9.167426 0.404640 -0.599869 6.098604 -0.129701 0.242691 -6.462997 -0.082005 0.000000 0.000000 0.000000
-19.628011 56.302132 -92.507472 177.943695 -9.558219 -0.578682 -1.948213 3.772231 -0.176703 -0.863952 1.677279 -0.062647 -0.863952 1.677279 -0.062647 -0.647746 1.258051 -0.044610 -5.515013 17.657412 0.006103 -10.172180 -3.210113 1.872534 0.275815 3.048060 8.661083 5.687156 -6.340225 79.036132 -1.087749 7.299237 -1.063387 -4.591547 -0.120626 1.919380 -3.617671 5.226468 -8.522275 3.943123 -7.952638 -75.743312 -3.049765 11.908395 -1.688740 5.323602 -3.303080 -5.781513 6.091649 8.928860 1.652532 -4.025090 8.480211 -0.600345 0.163066 -7.271531 0.348754 -0.000683 -0.699904 0.111880 1.639812 9.126594 0.401151 -0.603559 6.115696 -0.133656 0.223895 -6.456186 -0.089501 0.000000 0.000000 0.000000
-19.626752 56.302728 -92.478965 177.997114 -9.536854 -0.576227 -1.964840 3.784414 -0.202060 -0.871123 1.682807 -0.073723 -0.871122 1.682808 -0.073723 -0.653092 1.262214 -0.052890 -5.525585 17.658755 0.032770 -10.200583 -3.204631 1.925020 0.267151 3.084749 8.640702 5.778988 -6.445371 79.063614 -0.757063 7.365660 -0.927859 -4.600677 -0.130237 1.913564 -3.611018 5.271460 -8.509803 3.864701 -8.002596 -75.686511 -3.284609 11.934304 -1.787591 5.293121 -3.321199 -5.771675 6.056238 8.885487 1.649682 -4.025103 8.502323 -0.619929 0.140540 -7.247815 0.367174 -0.000674 -0.722858 0.106814 1.619036 9.077867 0.398671 -0.609226 6.130741 -0.137700 0.202727 -6.448593 -0.096995 0.000000 0.000000 0.000000
-19.629620 56.302535 -92.450228 178.080071 -9.517080 -0.590063 -2.001108 3.807234 -0.224130 -0.887036 1.693059 -0.083131 -0.887036 1.693059 -0.083131 -0.664998 1.269918 -0.059886 -5.539536 17.654471 0.064009 -10.237062 -3.208933 1.987493 0.233280 3.135593 8.597264 5.923221 -6.582744 79.103393 -0.434349 7.427968 -0.803023 -4.586929 -0.149689 1.877725 -3.597018 5.317020 -8.498677 3.769328 -8.067219 -75.624625 -3.485309 11.956104 -1.876484 5.259237 -3.340672 -5.750379 6.021156 8.839712 1.652473 -4.063009 8.535978 -0.626050 0.131182 -7.226632 0.392779 -0.000587 -0.751932 0.089397 1.587956 9.033436 0.407090 -0.629362 6.133797 -0.138343 0.173051 -6.438565 -0.095945 0.000000 0.000000 0.000000
-19.639625 56.300797 -92.427647 178.232448 -9.525368 -0.632699 -2.072430 3.856784 -0.237609 -0.918569 1.715172 -0.088308 -0.918569 1.715171 -0.088308 -0.688628 1.286514 -0.063647 -5.558645 17.639890 0.099173 -10.284946 -3.231593 2.059740 0.161371 3.203753 8.515212 6.142061 -6.756020 79.159189 -0.115877 7.489818 -0.686306 -4.529408 -0.187384 1.782797 -3.572879 5.362237 -8.493957 3.646029 -8.156083 -75.557182 -3.647099 11.973641 -1.953338 5.219229 -3.361136 -5.707690 5.960366 8.833467 1.665349 -4.157812 8.561544 -0.609706 0.148558 -7.206206 0.428585 -0.000363 -0.784982 0.052969 1.506100 9.017864 0.429010 -0.654910 6.130521 -0.131154 0.127376 -6.431515 -0.081651 0.000000 0.000000 0.000000
-19.653755 56.298269 -92.404835 178.414381 -9.535060 -0.691678 -2.163351 3.917017 -0.247743 -0.958821 1.742035 -0.091770 -0.958821 1.742034 -0.091769 -0.718799 1.306672 -0.066087 -5.581095 17.619742 0.138980 -10.340890 -3.263886 2.142116 0.063966 3.285922 8.410094 6.413050 -6.962175 79.226236 0.194596 7.547640 -0.580541 -4.449296 -0.234046 1.657286 -3.541399 5.407996 -8.490655 3.505691 -8.259441 -75.484205 -3.774736 11.987354 -2.020107 5.175915 -3.382860 -5.653510 5.899879 8.824823 1.683839 -4.290485 8.598722 -0.579955 0.179119 -7.188323 0.471565 -0.000030 -0.824146 0.004186 1.413906 9.006591 0.461812 -0.694940 6.115254 -0.120595 0.073185 -6.422022 -0.058846 0.000000 0.000000 0.000000
